<svg width="211" height="256" viewBox="0 0 211 256" fill="none" xmlns="http://www.w3.org/2000/svg">
<path d="M52.411 116.957C43.7882 120.914 37.0902 128.133 33.7904 137.028L23.0213 166.056C19.7214 174.951 20.0902 184.792 24.0463 193.415C32.2847 211.371 53.5194 219.249 71.4754 211.01C80.0983 207.054 86.7962 199.834 90.096 190.94L97.5451 170.861C97.5455 170.861 97.5449 170.86 97.5451 170.861L119.249 112.357C120.825 108.109 124.024 104.661 128.142 102.772C135.037 99.6082 142.944 101.42 147.823 106.708L154.673 88.2448C144.75 81.8507 131.875 80.4992 120.35 85.7869C111.727 89.743 105.029 96.9625 101.729 105.857L72.576 184.44C71 188.688 67.801 192.136 63.6828 194.026C55.1071 197.96 44.9656 194.198 41.031 185.622C39.1416 181.504 38.9654 176.804 40.5414 172.556L51.3105 143.527C52.8865 139.279 56.0854 135.831 60.2036 133.942C67.0985 130.779 75.0053 132.591 79.8849 137.879L86.7349 119.415C76.8118 113.021 63.9362 111.67 52.411 116.957Z" fill="#394149"/>
<path d="M91.5632 216.849C89.9872 221.097 86.7883 224.545 82.6701 226.434C75.7763 229.597 67.8704 227.786 62.9908 222.499L56.1412 240.962C66.064 247.355 78.9386 248.706 90.4627 243.419C99.0855 239.463 105.783 232.243 109.083 223.348L138.236 144.765C139.812 140.517 143.011 137.069 147.13 135.18C155.705 131.245 165.847 135.008 169.781 143.583C171.671 147.702 171.847 152.402 170.271 156.65L159.502 185.678C157.926 189.926 154.727 193.374 150.609 195.264C143.714 198.427 135.808 196.615 130.928 191.327L124.079 209.791C134.002 216.185 146.877 217.536 158.401 212.248C167.024 208.292 173.722 201.072 177.022 192.178L187.791 163.15C191.091 154.255 190.722 144.414 186.766 135.791C178.528 117.835 157.293 109.957 139.337 118.195C130.714 122.151 124.016 129.371 120.716 138.266L91.5632 216.849Z" fill="#394149"/>
<path d="M46.959 30.5735C44.1428 31.8656 41.8214 33.4725 39.9948 35.3945C38.1852 37.3537 36.894 39.5267 36.1212 41.9134C35.3483 44.3002 35.1046 46.8732 35.3899 49.6325C35.6752 52.3918 36.5025 55.2637 37.8718 58.2482L60.0545 106.597L42.6949 114.562L20.5122 66.2128C18.2528 61.2884 17.0026 56.3751 16.7615 51.4731C16.499 46.626 17.2068 42.0111 18.8851 37.6283C20.5634 33.2456 23.197 29.2148 26.786 25.536C30.3749 21.8572 34.9084 18.7612 40.3863 16.2479C45.8643 13.7346 51.1872 12.3085 56.3552 11.9696C61.4847 11.6483 66.2578 12.2809 70.6747 13.8671C75.0916 15.4534 79.0708 17.9178 82.6124 21.2605C86.1325 24.6581 89.0223 28.8191 91.2816 33.7436L113.464 82.0925L96.1047 90.0572L73.922 41.7082C72.5527 38.7237 70.9153 36.2235 69.0097 34.2076C67.1042 32.1917 64.9947 30.6983 62.6814 29.7275C60.3681 28.7567 57.8788 28.3182 55.2134 28.4121C52.5651 28.5433 49.8137 29.2638 46.959 30.5735Z" fill="#394149"/>
</svg>
